<?xml version="1.0" encoding="utf-8"?>
<!-- Generator: Adobe Illustrator 16.0.0, SVG Export Plug-In . SVG Version: 6.00 Build 0)  -->
<!DOCTYPE svg PUBLIC "-//W3C//DTD SVG 1.1//EN" "http://www.w3.org/Graphics/SVG/1.1/DTD/svg11.dtd">
<svg version="1.1" id="Laag_1" xmlns="http://www.w3.org/2000/svg" xmlns:xlink="http://www.w3.org/1999/xlink" x="0px" y="0px"
	 width="518px" height="124.001px" viewBox="0 0 518 124.001" enable-background="new 0 0 518 124.001" xml:space="preserve">
<g>
	<g>
		<path d="M380.779,90.225c-0.212-0.082-0.358-0.178-0.444-0.286c-0.088-0.105-0.171-0.262-0.256-0.476
			c-0.043-0.173-0.065-0.383-0.065-0.641c0-0.424,0.091-0.958,0.259-1.599c0.339-0.938,1.084-2.399,2.233-4.383
			c1.153-1.979,2.453-4.036,3.905-6.169c0.209-0.298,0.361-0.514,0.448-0.641c0.081-0.124,0.125-0.231,0.125-0.316
			c0-0.088,0-0.195,0-0.322V75.01c0.041-0.128,0.103-0.254,0.193-0.385c0.087-0.083,0.212-0.203,0.387-0.354
			c0.166-0.148,0.356-0.285,0.573-0.411c0.253-0.214,0.445-0.352,0.574-0.417c0.126-0.064,0.253-0.096,0.381-0.096
			c0.553,0.044,0.832,0.318,0.832,0.83c0,0.088-0.02,0.172-0.062,0.256c-0.046,0.084-0.106,0.213-0.192,0.385
			c-0.086,0.168-0.224,0.395-0.414,0.668c-0.198,0.278-0.439,0.651-0.738,1.123c-3.496,5.285-5.65,8.97-6.464,11.059
			c-0.036,0.173-0.077,0.31-0.12,0.417c-0.044,0.106-0.066,0.184-0.066,0.227c0.086,0,0.426-0.193,1.022-0.579
			c0.682-0.424,1.556-1.063,2.626-1.915c2.387-1.874,4.184-3.282,5.4-4.221c1.213-0.938,2.355-1.813,3.42-2.622
			c3.113-2.303,5.717-4.188,7.802-5.66c2.088-1.471,3.349-2.268,3.769-2.396c0.133-0.045,0.26-0.066,0.392-0.066
			c0.166,0,0.339,0.047,0.507,0.132c0.213,0.17,0.324,0.403,0.324,0.702v0.124c0,0.173-0.065,0.323-0.193,0.453
			c-0.131,0.124-0.409,0.316-0.832,0.571c-1.41,0.857-3.826,2.537-7.259,5.051c-3.425,2.519-6.894,5.159-10.394,7.933
			c-1.531,1.236-2.74,2.174-3.607,2.81c-0.875,0.644-1.559,1.091-2.051,1.347c-0.488,0.251-0.903,0.383-1.245,0.383h-0.257
			C381.04,90.357,380.868,90.314,380.779,90.225z"/>
		<path d="M405.786,85.818c-1.199-0.429-1.857-0.972-1.986-1.63c-0.127-0.665-0.17-1.227-0.127-1.698
			c0.041-0.511,0.193-1.063,0.451-1.661c0.762-1.664,1.872-3.156,3.322-4.474c1.448-1.323,2.815-2.303,4.095-2.941
			c0.513-0.257,1.048-0.43,1.601-0.515c0.336-0.086,0.676-0.129,1.015-0.129c0.604,0,1.092,0.129,1.474,0.387
			c0.727,0.34,1.064,0.704,1.021,1.086v0.514c-0.08,0.682-0.594,1.365-1.53,2.046c-1.833,1.237-3.73,1.851-5.691,1.851
			c-0.599,0-1.194-0.037-1.791-0.126c-0.808,0.726-1.364,1.471-1.661,2.238c-0.3,0.768-0.452,1.28-0.452,1.533
			c-0.079,0.726,0.152,1.303,0.709,1.726c0.425,0.215,0.978,0.322,1.66,0.322h0.637c0.94-0.044,1.73-0.15,2.372-0.322
			c2-0.423,4.367-1.232,7.095-2.427c0.85-0.384,1.472-0.704,1.854-0.961c0.728-0.385,1.257-0.574,1.598-0.574h0.195
			c0.254,0.086,0.36,0.253,0.319,0.511c0,0.086-0.024,0.171-0.065,0.256c-0.173,0.385-0.558,0.791-1.152,1.217
			c-0.594,0.34-1.428,0.746-2.492,1.215c-3.241,1.449-5.951,2.319-8.124,2.62c-0.808,0.129-1.555,0.191-2.236,0.191
			C407.084,86.072,406.38,85.986,405.786,85.818z M410.323,77.057c0.766-0.087,1.578-0.321,2.434-0.702l0.895-0.514
			c0.68-0.426,1.022-0.745,1.022-0.959c0.041-0.045,0.041-0.088,0-0.126c-0.125-0.175-0.365-0.259-0.702-0.259
			c-0.17,0-0.387,0.021-0.644,0.065c-0.638,0.128-1.427,0.51-2.363,1.152c-0.301,0.168-0.595,0.381-0.894,0.64
			c-0.518,0.381-0.793,0.639-0.837,0.765c0,0.043,0.065,0.064,0.195,0.064C409.597,77.184,409.894,77.142,410.323,77.057z"/>
		<path d="M417.549,83.708c0.298-0.386,0.738-0.96,1.31-1.729c0.575-0.766,1.119-1.427,1.633-1.981
			c0.255-0.3,0.649-0.77,1.181-1.406c0.535-0.64,1.075-1.3,1.634-1.981c0.805-1.064,1.405-1.848,1.787-2.338
			c0.388-0.486,0.654-0.85,0.831-1.086c0.173-0.231,0.342-0.479,0.51-0.734c0.389-0.552,0.663-0.839,0.834-0.864
			c0.17-0.021,0.281-0.03,0.318-0.03c0.258,0,0.451,0.129,0.577,0.383c0.04,0.084,0.065,0.193,0.065,0.323
			c0,0.212-0.065,0.468-0.191,0.764c-0.086,0.171-0.232,0.417-0.451,0.738c-0.214,0.317-0.427,0.627-0.637,0.926
			c-0.213,0.296-0.383,0.533-0.516,0.702l-0.126,0.127c0.17-0.04,0.321-0.063,0.453-0.063c0.423,0,0.788,0.127,1.083,0.385
			c0.473,0.297,0.812,0.728,1.025,1.278c0.426,1.065,1.038,1.598,1.853,1.598h0.194c0.852-0.084,1.787-0.426,2.812-1.023
			c0.422-0.254,0.784-0.381,1.084-0.381h0.189c0.259,0.043,0.387,0.212,0.387,0.509c0,0.3-0.149,0.597-0.451,0.896
			c-0.467,0.472-1.104,0.853-1.916,1.15c-0.893,0.346-1.705,0.512-2.426,0.512c-0.217,0-0.426-0.017-0.643-0.064
			c-0.938-0.167-1.725-0.745-2.367-1.724c-0.125-0.173-0.232-0.34-0.318-0.513c-0.171-0.385-0.325-0.584-0.479-0.608
			c-0.15-0.021-0.243-0.03-0.284-0.03c-0.261,0-0.619,0.148-1.088,0.445c-0.771,0.516-1.61,1.279-2.529,2.305
			c-0.918,1.023-1.673,1.92-2.268,2.684c-0.173,0.214-0.359,0.471-0.574,0.77c-0.17,0.215-0.344,0.438-0.512,0.673
			c-0.172,0.23-0.3,0.394-0.385,0.479c-0.469,0.509-0.875,0.766-1.215,0.766h-0.064c-0.346,0-0.532-0.118-0.574-0.352
			c-0.041-0.237-0.066-0.394-0.066-0.48C417.229,84.432,417.337,84.087,417.549,83.708z"/>
		<path d="M409.883,122.713c-0.308-0.043-0.603-0.148-0.905-0.321c-0.29-0.169-0.524-0.36-0.7-0.573
			c-0.083-0.088-0.174-0.205-0.258-0.354c-0.084-0.146-0.168-0.285-0.25-0.413c-0.048-0.128-0.086-0.257-0.132-0.385
			c-0.041-0.124-0.062-0.266-0.062-0.411c0-0.15,0-0.376,0-0.675c0-0.597,0.073-1.151,0.223-1.663
			c0.145-0.513,0.396-1.11,0.732-1.792c1.37-2.686,3.629-5.401,6.777-8.153c3.161-2.749,6.717-5.104,10.683-7.066
			c3.581-1.79,6.947-2.963,10.103-3.512c0.301-0.046,0.553-0.089,0.769-0.132c0.213-0.041,0.34-0.082,0.382-0.129
			c0-0.04,0.106-0.191,0.323-0.447c0.214-0.252,0.445-0.574,0.701-0.96c6.137-8.393,9.25-14.769,9.336-19.116
			c0-0.426-0.008-0.686-0.032-0.769c-0.023-0.084-0.076-0.126-0.161-0.126c-0.039,0-0.125,0.02-0.255,0.062
			c-0.085,0.043-0.403,0.254-0.958,0.638c-0.556,0.387-1.239,0.851-2.047,1.406c-4.82,3.501-8.505,5.886-11.062,7.161
			c-1.067,0.556-1.899,0.835-2.493,0.835c-0.556,0-0.938-0.238-1.153-0.704c-0.129-0.171-0.192-0.362-0.192-0.576
			c0-1.108,1.26-2.918,3.774-5.436c2.05-2.132,3.878-3.582,5.5-4.346c1.019-0.556,1.854-0.843,2.495-0.863
			c0.635-0.025,0.978-0.032,1.025-0.032c1.143,0,2.168,0.36,3.065,1.085l0.573-0.383c0.768-0.511,1.427-0.768,1.986-0.768
			c0.426,0,0.785,0.151,1.086,0.447c0.469,0.514,0.705,1.323,0.705,2.43c0,1.108-0.258,2.538-0.771,4.285
			c-1.236,3.961-3.964,8.908-8.188,14.834l-0.959,1.28l0.896,0.062c3.197,0.261,6.078,1.431,8.632,3.518
			c0.39,0.301,0.698,0.577,0.926,0.833c0.239,0.255,0.486,0.557,0.739,0.896c0.511,0.806,0.768,1.491,0.768,2.044v0.125
			c-0.083,0.515-0.247,0.836-0.478,0.961c-0.231,0.128-0.418,0.192-0.543,0.192c-0.214,0-0.412-0.084-0.579-0.257
			c-0.082-0.085-0.135-0.18-0.154-0.286c-0.025-0.104-0.058-0.267-0.1-0.476v-0.198c0-0.252-0.066-0.509-0.189-0.765
			c-0.176-0.299-0.519-0.704-1.025-1.213c-1.619-1.577-3.731-2.686-6.33-3.326c-0.387-0.088-0.862-0.152-1.443-0.193
			c-0.574-0.04-1.119-0.062-1.629-0.062c-0.509,0-0.809,0.041-0.896,0.127c-0.036,0.04-0.16,0.183-0.347,0.415
			c-0.194,0.234-0.441,0.521-0.742,0.861c-3.408,4.354-6.819,8.229-10.227,11.639c-1.193,1.194-2.248,2.207-3.17,3.037
			c-0.914,0.833-1.859,1.651-2.843,2.462c-4.43,3.539-7.8,5.31-10.105,5.31C410.408,122.778,410.13,122.752,409.883,122.713z
			 M411.988,120.73c1.32-0.383,3.069-1.322,5.241-2.812c5.116-3.666,10.682-9.186,16.689-16.562c0.259-0.3,0.469-0.555,0.639-0.77
			c0.172-0.212,0.306-0.395,0.417-0.543c0.102-0.147,0.194-0.266,0.256-0.353c0.068-0.081,0.117-0.146,0.159-0.19v-0.066h-0.066
			c-0.035,0-0.273,0.056-0.702,0.163c-0.426,0.106-0.879,0.226-1.373,0.353c-0.487,0.13-0.88,0.254-1.184,0.381
			c-4.556,1.579-8.884,3.903-12.981,6.97c-1.19,0.854-2.389,1.837-3.58,2.942c-1.194,1.109-2.175,2.133-2.94,3.069
			c-2.085,2.648-3.133,4.755-3.133,6.331v0.449c0.129,0.597,0.527,0.896,1.213,0.896
			C411.027,120.988,411.474,120.899,411.988,120.73z M432.385,83.26c1.75-0.896,3.984-2.26,6.712-4.096
			c0.682-0.466,1.38-0.947,2.083-1.439c0.699-0.489,1.287-0.904,1.754-1.246c0.471-0.341,0.703-0.531,0.703-0.571
			c-0.041-0.13-0.403-0.214-1.086-0.259c-0.172-0.04-0.363-0.065-0.577-0.065c-2.129,0-4.666,1.559-7.611,4.668
			c-0.462,0.472-0.925,0.972-1.372,1.507c-0.447,0.531-0.801,0.971-1.055,1.309c-0.252,0.343-0.382,0.534-0.382,0.576
			c0.042,0,0.136-0.033,0.287-0.098C431.991,83.481,432.173,83.386,432.385,83.26z"/>
		<path d="M453.109,86.135c-0.861-0.297-1.285-0.851-1.285-1.66c0-0.388,0.108-0.832,0.318-1.346c0.43-1.02,1.325-2.267,2.686-3.738
			c1.366-1.476,2.835-2.802,4.419-3.998c2.384-1.746,4.32-2.623,5.815-2.623c0.594,0,1.131,0.151,1.601,0.449
			c0.381,0.34,0.594,0.811,0.637,1.406c0,0.131,0.009,0.234,0.031,0.32c0.02,0.086,0.055,0.16,0.095,0.223
			c0.044,0.064,0.11,0.137,0.192,0.225c0.258,0.216,0.385,0.428,0.385,0.639v0.193c-0.127,0.254-0.298,0.511-0.512,0.769
			c-0.934,1.191-1.639,2.448-2.107,3.771c-0.217,0.511-0.321,0.938-0.321,1.28c0,0.637,0.362,0.958,1.083,0.958h0.386
			c0.681-0.087,1.505-0.321,2.465-0.705c0.96-0.381,1.882-0.872,2.779-1.47c1.235-0.812,2.259-1.576,3.072-2.302
			c0.596-0.469,1.043-0.705,1.343-0.705c0.085,0,0.169,0.022,0.256,0.063c0.13,0.089,0.192,0.216,0.192,0.384
			c0,0.258-0.153,0.603-0.448,1.027c-0.981,1.231-2.156,2.236-3.521,3.002c-0.934,0.637-2.023,1.225-3.261,1.759
			c-1.234,0.535-2.302,0.802-3.193,0.802c-0.389,0-0.75-0.043-1.09-0.13c-1.234-0.467-1.853-1.362-1.853-2.684
			c0-0.214,0.021-0.448,0.064-0.705c0.041-0.168,0.062-0.32,0.062-0.447l0.064-0.128c0-0.042-0.023-0.064-0.064-0.064l-0.445,0.319
			c-0.345,0.256-0.75,0.577-1.215,0.959c-2.686,2.004-4.796,3.281-6.336,3.839c-0.426,0.168-0.797,0.276-1.115,0.317
			c-0.324,0.047-0.566,0.066-0.738,0.066C453.38,86.202,453.23,86.182,453.109,86.135z M455.022,84.024
			c1.407-0.549,3.323-1.748,5.752-3.579c0.559-0.428,1.284-1.042,2.18-1.854c0.892-0.811,1.551-1.534,1.979-2.176
			c0.427-0.681,0.643-1.191,0.643-1.533v-0.126c-0.088-0.214-0.258-0.322-0.513-0.322h-0.257c-0.384,0.084-0.831,0.245-1.342,0.479
			c-0.51,0.236-0.963,0.459-1.344,0.671c-1.533,0.94-3.146,2.238-4.831,3.903c-1.68,1.663-2.817,3.067-3.419,4.221
			c-0.128,0.298-0.188,0.488-0.188,0.576c0,0.041,0.039,0.062,0.124,0.062H454c0.129-0.044,0.287-0.084,0.477-0.125
			C454.668,84.175,454.854,84.113,455.022,84.024z"/>
		<path d="M486.23,83.834v-0.32c0-0.47,0.086-1.045,0.26-1.725c0.258-0.77,0.703-1.898,1.34-3.389
			c0.34-0.771,0.607-1.451,0.801-2.046c0.191-0.598,0.285-0.983,0.285-1.155c0-0.04-0.02-0.063-0.064-0.063c-0.039,0-0.143,0-0.32,0
			c-0.807,0.088-2.494,0.788-5.047,2.112c-3.115,1.577-6.594,3.771-10.43,6.586c-0.13,0.044-0.256,0.129-0.386,0.253
			c-0.341,0.259-0.699,0.525-1.086,0.802c-0.381,0.277-0.732,0.521-1.053,0.733c-0.321,0.216-0.525,0.346-0.608,0.387
			c-0.171,0.085-0.339,0.126-0.514,0.126c-0.252,0-0.465-0.126-0.638-0.383c-0.086-0.13-0.132-0.28-0.132-0.448
			c0-0.296,0.105-0.617,0.32-0.958c0.389-0.426,1.219-1.259,2.498-2.492c0.897-0.854,1.856-1.812,2.88-2.879
			c0.593-0.598,1.128-1.143,1.593-1.632c0.476-0.488,0.772-0.819,0.898-0.988c0.129-0.171,0.269-0.333,0.419-0.483
			c0.146-0.147,0.291-0.263,0.417-0.352l0.509-0.257l0.193,0.066c0.471,0.086,0.701,0.319,0.701,0.702
			c0,0.384-0.189,0.771-0.576,1.152c-0.084,0.043-0.225,0.172-0.412,0.384c-0.193,0.213-0.386,0.427-0.574,0.641
			c-0.194,0.21-0.342,0.383-0.45,0.509c-0.107,0.13-0.164,0.216-0.164,0.258c3.71-2.346,6.762-4.006,9.147-4.988
			c1.156-0.465,2.092-0.702,2.814-0.702c0.771,0,1.303,0.274,1.604,0.832c0.082,0.126,0.135,0.233,0.158,0.317
			c0.018,0.084,0.041,0.182,0.066,0.287c0.021,0.107,0.027,0.266,0.027,0.479c0,0.471-0.076,0.959-0.221,1.473
			c-0.15,0.512-0.438,1.237-0.863,2.175c-0.041,0.128-0.111,0.255-0.193,0.381c-0.514,1.11-0.875,2.017-1.086,2.721
			c-0.215,0.7-0.322,1.204-0.322,1.502c0,0.428,0.148,0.745,0.447,0.959c0.127,0.088,0.322,0.128,0.574,0.128
			c0.555,0,1.453-0.275,2.688-0.83c0.941-0.428,1.812-0.916,2.623-1.472c0.807-0.554,1.447-0.978,1.918-1.278
			c0.725-0.513,1.375-0.993,1.947-1.44c0.58-0.447,0.975-0.753,1.188-0.926c0.938-0.682,1.578-1.023,1.918-1.023h0.062
			c0.213,0.042,0.324,0.188,0.324,0.451c0,0.125-0.027,0.272-0.068,0.445c-0.215,0.511-0.643,1.022-1.277,1.533
			c-0.172,0.168-0.381,0.341-0.641,0.515c-0.639,0.549-1.471,1.191-2.49,1.914c-0.135,0.128-0.279,0.236-0.453,0.321
			c-1.406,1.067-2.92,1.981-4.539,2.751c-0.727,0.34-1.387,0.556-1.982,0.637c-0.598,0.089-1.02,0.132-1.275,0.132
			c-0.557,0-1.068-0.108-1.535-0.324C486.764,85.602,486.359,84.9,486.23,83.834z"/>
		<path d="M476.19,122.713c-0.3-0.043-0.597-0.148-0.898-0.321c-0.291-0.169-0.527-0.36-0.698-0.573
			c-0.089-0.088-0.172-0.205-0.257-0.354c-0.084-0.146-0.168-0.285-0.261-0.413c-0.035-0.128-0.08-0.257-0.124-0.385
			c-0.044-0.124-0.062-0.266-0.062-0.411c0-0.15,0-0.376,0-0.675c0-0.597,0.067-1.151,0.222-1.663
			c0.15-0.513,0.394-1.11,0.736-1.792c1.367-2.686,3.627-5.401,6.784-8.153c3.156-2.749,6.713-5.104,10.676-7.066
			c3.584-1.79,6.947-2.963,10.107-3.512c0.291-0.046,0.551-0.089,0.764-0.132c0.213-0.041,0.34-0.082,0.387-0.129
			c0-0.04,0.105-0.191,0.318-0.447c0.213-0.252,0.445-0.574,0.701-0.96c6.137-8.393,9.25-14.769,9.338-19.116
			c0-0.426-0.01-0.686-0.033-0.769c-0.02-0.084-0.074-0.126-0.162-0.126c-0.039,0-0.125,0.02-0.254,0.062
			c-0.086,0.043-0.404,0.254-0.959,0.638c-0.559,0.387-1.232,0.851-2.045,1.406c-4.818,3.501-8.504,5.886-11.062,7.161
			c-1.066,0.556-1.9,0.835-2.494,0.835c-0.557,0-0.938-0.238-1.152-0.704c-0.125-0.171-0.193-0.362-0.193-0.576
			c0-1.108,1.26-2.918,3.777-5.436c2.047-2.132,3.875-3.582,5.5-4.346c1.02-0.556,1.852-0.843,2.492-0.863
			c0.635-0.025,0.98-0.032,1.023-0.032c1.15,0,2.172,0.36,3.068,1.085l0.574-0.383c0.771-0.511,1.426-0.768,1.984-0.768
			c0.426,0,0.791,0.151,1.088,0.447c0.467,0.514,0.705,1.323,0.705,2.43c0,1.108-0.256,2.538-0.77,4.285
			c-1.236,3.961-3.967,8.908-8.188,14.834l-0.959,1.28l0.896,0.062c3.195,0.261,6.074,1.431,8.633,3.518
			c0.387,0.301,0.693,0.577,0.928,0.833c0.229,0.255,0.479,0.557,0.736,0.896c0.51,0.806,0.764,1.491,0.764,2.044v0.125
			c-0.082,0.515-0.246,0.836-0.477,0.961c-0.234,0.128-0.418,0.192-0.545,0.192c-0.215,0-0.404-0.084-0.578-0.257
			c-0.086-0.085-0.135-0.18-0.16-0.286c-0.02-0.104-0.051-0.267-0.092-0.476v-0.198c0-0.252-0.062-0.509-0.189-0.765
			c-0.174-0.299-0.514-0.704-1.025-1.213c-1.625-1.577-3.732-2.686-6.332-3.326c-0.387-0.088-0.861-0.152-1.438-0.193
			c-0.576-0.04-1.121-0.062-1.633-0.062c-0.508,0-0.812,0.041-0.895,0.127c-0.041,0.04-0.158,0.183-0.352,0.415
			c-0.189,0.234-0.436,0.521-0.736,0.861c-3.41,4.354-6.82,8.229-10.232,11.639c-1.189,1.194-2.244,2.207-3.164,3.037
			c-0.918,0.833-1.867,1.651-2.844,2.462c-4.432,3.539-7.805,5.31-10.107,5.31C476.721,122.778,476.446,122.752,476.19,122.713z
			 M478.303,120.73c1.32-0.383,3.068-1.322,5.248-2.812c5.111-3.666,10.676-9.186,16.686-16.562c0.256-0.3,0.469-0.555,0.641-0.77
			c0.172-0.212,0.309-0.395,0.416-0.543c0.105-0.147,0.191-0.266,0.258-0.353c0.061-0.081,0.113-0.146,0.16-0.19v-0.066h-0.068
			c-0.039,0-0.277,0.056-0.703,0.163c-0.422,0.106-0.881,0.226-1.375,0.353c-0.492,0.13-0.885,0.254-1.184,0.381
			c-4.561,1.579-8.885,3.903-12.982,6.97c-1.189,0.854-2.383,1.837-3.576,2.942c-1.198,1.109-2.18,2.133-2.945,3.069
			c-2.09,2.648-3.136,4.755-3.136,6.331v0.449c0.134,0.597,0.533,0.896,1.215,0.896C477.344,120.988,477.789,120.899,478.303,120.73
			z M498.705,83.26c1.746-0.896,3.98-2.26,6.713-4.096c0.68-0.466,1.373-0.947,2.078-1.439c0.701-0.489,1.287-0.904,1.756-1.246
			c0.469-0.341,0.703-0.531,0.703-0.571c-0.041-0.13-0.4-0.214-1.088-0.259c-0.17-0.04-0.357-0.065-0.572-0.065
			c-2.131,0-4.666,1.559-7.615,4.668c-0.465,0.472-0.92,0.972-1.367,1.507c-0.453,0.531-0.807,0.971-1.059,1.309
			c-0.254,0.343-0.383,0.534-0.383,0.576c0.041,0,0.135-0.033,0.289-0.098C498.312,83.481,498.49,83.386,498.705,83.26z"/>
	</g>
	<g>
		<path d="M173.016,87.083c-0.17-0.04-0.332-0.138-0.479-0.286c-0.152-0.147-0.27-0.287-0.354-0.415
			c-0.088-0.258-0.13-0.533-0.13-0.831c0-0.728,0.257-1.622,0.77-2.687c0.766-1.534,1.779-3.101,3.038-4.7
			c1.258-1.599,2.436-2.888,3.546-3.867c0.768-0.684,1.489-1.021,2.174-1.021c0.13,0,0.26,0.019,0.388,0.06
			c0.766,0.126,1.275,0.855,1.531,2.177c0.047,0.296,0.066,0.594,0.066,0.894c0,1.022-0.214,2.004-0.642,2.941l-0.38,0.639
			c0.424,0.088,0.845,0.131,1.278,0.131c1.659,0,3.282-0.53,4.856-1.6c0.294-0.13,0.6-0.191,0.898-0.191h0.193
			c0.299,0.084,0.467,0.211,0.508,0.381v0.193c0,0.254-0.148,0.512-0.447,0.769c-1.28,1.022-2.534,1.642-3.771,1.854
			c-1.237,0.212-2.197,0.318-2.883,0.318c-0.678,0-1.271-0.062-1.783-0.192l-0.387,0.449c-0.898,0.981-1.919,1.929-3.07,2.846
			c-1.149,0.918-2.154,1.566-3.001,1.947c-0.348,0.128-0.642,0.205-0.896,0.228c-0.257,0.021-0.427,0.031-0.516,0.031
			C173.316,87.149,173.145,87.127,173.016,87.083z M174.55,85.037c1.321-0.68,2.728-1.766,4.222-3.259l0.699-0.768l-0.382-0.193
			c-0.305-0.169-0.606-0.385-0.927-0.639c-0.321-0.255-0.546-0.447-0.672-0.574l-0.127-0.258l-0.642,0.832
			c-0.509,0.727-1.007,1.479-1.504,2.271c-0.486,0.787-0.841,1.405-1.054,1.854c-0.213,0.447-0.316,0.733-0.316,0.861
			c0,0.088,0.041,0.129,0.131,0.129c0.039,0,0.11-0.022,0.219-0.064C174.305,85.189,174.421,85.123,174.55,85.037z M181.907,76.02
			c0-0.381-0.074-0.627-0.227-0.734c-0.15-0.106-0.266-0.159-0.35-0.159c-0.175,0-0.387,0.085-0.646,0.256
			c-0.383,0.298-0.795,0.691-1.24,1.183c-0.447,0.491-0.756,0.908-0.93,1.246c0,0.087,0.098,0.225,0.288,0.416
			c0.194,0.193,0.416,0.396,0.669,0.609c0.258,0.215,0.473,0.362,0.639,0.444l0.514,0.257l0.32-0.509
			C181.582,78.046,181.907,77.045,181.907,76.02z"/>
		<path d="M164.448,123.725c-0.299-0.043-0.595-0.15-0.898-0.322c-0.295-0.168-0.53-0.359-0.705-0.57
			c-0.078-0.086-0.164-0.205-0.256-0.355c-0.083-0.149-0.167-0.288-0.252-0.414c-0.048-0.127-0.087-0.257-0.129-0.383
			c-0.042-0.131-0.065-0.268-0.065-0.419c0-0.147,0-0.37,0-0.67c0-0.594,0.079-1.147,0.226-1.663
			c0.156-0.511,0.398-1.107,0.74-1.789c1.358-2.687,3.619-5.404,6.771-8.151c3.161-2.751,6.717-5.105,10.684-7.07
			c3.578-1.79,6.942-2.962,10.105-3.514c0.293-0.045,0.545-0.085,0.764-0.132c0.213-0.041,0.337-0.082,0.384-0.125
			c0-0.043,0.108-0.191,0.318-0.448c0.216-0.258,0.446-0.573,0.703-0.96c6.137-8.396,9.251-14.768,9.336-19.116
			c0-0.429-0.008-0.684-0.032-0.77c-0.021-0.082-0.074-0.128-0.158-0.128c-0.043,0-0.13,0.023-0.256,0.063
			c-0.091,0.043-0.404,0.257-0.959,0.639c-0.555,0.384-1.244,0.854-2.046,1.409c-4.817,3.494-8.505,5.881-11.062,7.164
			c-1.068,0.55-1.9,0.827-2.495,0.827c-0.552,0-0.938-0.232-1.153-0.704c-0.126-0.169-0.188-0.359-0.188-0.573
			c0-1.108,1.253-2.921,3.771-5.435c2.048-2.132,3.879-3.583,5.498-4.353c1.024-0.552,1.856-0.836,2.496-0.861
			c0.637-0.02,0.979-0.028,1.021-0.028c1.152,0,2.178,0.359,3.072,1.087l0.574-0.387c0.768-0.512,1.426-0.769,1.983-0.769
			c0.426,0,0.788,0.153,1.081,0.449c0.473,0.509,0.711,1.319,0.711,2.43c0,1.108-0.264,2.537-0.77,4.287
			c-1.238,3.963-3.967,8.906-8.184,14.832l-0.962,1.282l0.896,0.062c3.196,0.257,6.072,1.431,8.639,3.517
			c0.381,0.3,0.689,0.574,0.917,0.829c0.238,0.257,0.482,0.557,0.738,0.896c0.513,0.812,0.772,1.494,0.772,2.046v0.128
			c-0.087,0.514-0.25,0.832-0.484,0.96c-0.234,0.126-0.414,0.193-0.544,0.193c-0.213,0-0.403-0.087-0.576-0.259
			c-0.084-0.082-0.134-0.18-0.155-0.287c-0.025-0.105-0.057-0.264-0.098-0.48v-0.188c0-0.259-0.066-0.513-0.189-0.771
			c-0.174-0.294-0.516-0.7-1.026-1.211c-1.616-1.579-3.73-2.688-6.33-3.328c-0.387-0.084-0.859-0.15-1.44-0.189
			c-0.572-0.045-1.118-0.065-1.629-0.065c-0.514,0-0.812,0.045-0.895,0.127c-0.042,0.044-0.161,0.181-0.354,0.419
			c-0.188,0.233-0.434,0.521-0.733,0.86c-3.413,4.347-6.826,8.228-10.229,11.639c-1.195,1.192-2.248,2.208-3.17,3.037
			c-0.914,0.831-1.861,1.653-2.846,2.463c-4.428,3.538-7.795,5.308-10.1,5.308C164.974,123.79,164.701,123.766,164.448,123.725z
			 M166.558,121.745c1.321-0.387,3.066-1.324,5.239-2.816c5.119-3.665,10.686-9.188,16.693-16.561
			c0.256-0.298,0.468-0.557,0.641-0.77c0.167-0.212,0.303-0.394,0.418-0.541c0.102-0.149,0.19-0.268,0.249-0.353
			c0.065-0.086,0.118-0.147,0.16-0.193v-0.063h-0.063c-0.037,0-0.278,0.056-0.701,0.162c-0.426,0.106-0.888,0.222-1.375,0.351
			c-0.492,0.126-0.882,0.257-1.186,0.383c-4.557,1.578-8.884,3.899-12.978,6.968c-1.192,0.855-2.39,1.836-3.577,2.942
			c-1.199,1.108-2.18,2.134-2.945,3.069c-2.086,2.646-3.135,4.757-3.135,6.332v0.447c0.129,0.6,0.534,0.898,1.215,0.898
			C165.598,122,166.047,121.913,166.558,121.745z M186.958,84.272c1.746-0.897,3.985-2.263,6.714-4.094
			c0.678-0.469,1.371-0.949,2.076-1.438c0.7-0.49,1.287-0.905,1.756-1.247c0.473-0.34,0.704-0.533,0.704-0.574
			c-0.04-0.13-0.406-0.213-1.085-0.257c-0.171-0.044-0.361-0.063-0.574-0.063c-2.139,0-4.672,1.557-7.615,4.668
			c-0.465,0.468-0.926,0.969-1.376,1.502c-0.442,0.531-0.796,0.97-1.057,1.31c-0.249,0.344-0.381,0.537-0.381,0.578
			c0.048,0,0.14-0.036,0.292-0.1C186.558,84.496,186.745,84.398,186.958,84.272z"/>
	</g>
	<g>
		<path d="M230.802,90.577c-0.21-0.086-0.356-0.18-0.443-0.287c-0.085-0.106-0.171-0.267-0.256-0.479
			c-0.042-0.173-0.062-0.386-0.062-0.642c0-0.423,0.083-0.959,0.253-1.596c0.345-0.939,1.088-2.401,2.239-4.382
			c1.155-1.983,2.451-4.039,3.905-6.171c0.214-0.3,0.363-0.513,0.444-0.64c0.084-0.126,0.128-0.233,0.128-0.318
			c0-0.088,0-0.194,0-0.321v-0.387c0.042-0.125,0.105-0.254,0.19-0.38c0.087-0.088,0.217-0.202,0.388-0.354
			c0.168-0.146,0.359-0.286,0.572-0.416c0.257-0.211,0.453-0.351,0.578-0.411c0.126-0.066,0.256-0.1,0.382-0.1
			c0.549,0.046,0.835,0.32,0.835,0.831c0,0.086-0.027,0.173-0.063,0.255c-0.044,0.087-0.107,0.214-0.198,0.385
			c-0.085,0.171-0.221,0.395-0.412,0.673c-0.193,0.276-0.441,0.647-0.734,1.116c-3.498,5.287-5.655,8.977-6.466,11.064
			c-0.041,0.171-0.083,0.311-0.123,0.417c-0.044,0.107-0.066,0.181-0.066,0.222c0.089,0,0.428-0.193,1.022-0.577
			c0.688-0.422,1.56-1.062,2.621-1.915c2.393-1.875,4.192-3.285,5.41-4.22c1.213-0.94,2.353-1.812,3.418-2.621
			c3.109-2.304,5.713-4.189,7.799-5.66c2.087-1.473,3.352-2.271,3.777-2.398c0.128-0.043,0.254-0.064,0.38-0.064
			c0.175,0,0.341,0.042,0.514,0.129c0.214,0.17,0.321,0.406,0.321,0.704v0.127c0,0.169-0.066,0.32-0.193,0.446
			c-0.128,0.129-0.407,0.321-0.83,0.574c-1.409,0.855-3.829,2.539-7.26,5.054c-3.432,2.517-6.893,5.159-10.388,7.93
			c-1.536,1.238-2.742,2.172-3.615,2.813c-0.874,0.638-1.556,1.085-2.049,1.343c-0.493,0.255-0.905,0.385-1.245,0.385h-0.259
			C231.061,90.707,230.892,90.666,230.802,90.577z"/>
		<path d="M253.316,86.418c-0.167-0.041-0.328-0.138-0.476-0.286c-0.152-0.147-0.272-0.286-0.354-0.417
			c-0.086-0.256-0.128-0.53-0.128-0.83c0-0.721,0.251-1.62,0.77-2.687c0.763-1.532,1.775-3.102,3.037-4.697
			c1.255-1.6,2.441-2.89,3.543-3.869c0.771-0.683,1.497-1.024,2.175-1.024c0.132,0,0.256,0.023,0.384,0.066
			c0.767,0.127,1.283,0.854,1.539,2.174c0.041,0.3,0.06,0.596,0.06,0.894c0,1.026-0.21,2.005-0.637,2.938l-0.382,0.645
			c0.428,0.086,0.85,0.129,1.278,0.129c1.659,0,3.28-0.535,4.858-1.604c0.299-0.126,0.602-0.188,0.898-0.188h0.188
			c0.299,0.085,0.468,0.213,0.512,0.381v0.193c0,0.257-0.151,0.511-0.45,0.765c-1.273,1.025-2.537,1.646-3.772,1.856
			c-1.235,0.215-2.193,0.32-2.876,0.32c-0.678,0-1.278-0.063-1.79-0.191l-0.38,0.443c-0.896,0.987-1.921,1.935-3.073,2.85
			c-1.151,0.919-2.151,1.567-3.005,1.95c-0.345,0.13-0.639,0.201-0.895,0.224c-0.259,0.023-0.424,0.034-0.517,0.034
			C253.616,86.487,253.444,86.463,253.316,86.418z M254.85,84.374c1.322-0.684,2.727-1.77,4.222-3.26l0.702-0.767l-0.382-0.192
			c-0.298-0.17-0.61-0.383-0.931-0.641c-0.319-0.256-0.542-0.447-0.668-0.574l-0.125-0.26l-0.644,0.834
			c-0.511,0.728-1.011,1.48-1.503,2.271c-0.492,0.788-0.84,1.406-1.056,1.854c-0.212,0.447-0.317,0.734-0.317,0.864
			c0,0.085,0.041,0.126,0.126,0.126c0.041,0,0.115-0.02,0.224-0.064C254.603,84.524,254.722,84.46,254.85,84.374z M262.205,75.355
			c0-0.38-0.073-0.626-0.226-0.733c-0.15-0.105-0.266-0.159-0.35-0.159c-0.174,0-0.383,0.087-0.642,0.257
			c-0.38,0.297-0.795,0.695-1.243,1.183c-0.451,0.492-0.759,0.905-0.926,1.247c0,0.086,0.094,0.224,0.284,0.415
			c0.19,0.19,0.416,0.396,0.671,0.607c0.258,0.215,0.471,0.363,0.644,0.448l0.508,0.255l0.321-0.513
			C261.882,77.38,262.205,76.381,262.205,75.355z"/>
		<path d="M266.424,86.418c-0.168-0.041-0.328-0.138-0.477-0.286c-0.15-0.147-0.27-0.286-0.352-0.417
			c-0.086-0.256-0.13-0.53-0.13-0.83c0-0.721,0.256-1.62,0.769-2.687c0.766-1.532,1.777-3.102,3.037-4.697
			c1.256-1.6,2.439-2.89,3.544-3.869c0.772-0.683,1.497-1.024,2.179-1.024c0.126,0,0.254,0.023,0.381,0.066
			c0.77,0.127,1.279,0.854,1.539,2.174c0.041,0.3,0.064,0.596,0.064,0.894c0,1.026-0.217,2.005-0.646,2.938l-0.381,0.645
			c0.429,0.086,0.854,0.129,1.282,0.129c1.657,0,3.279-0.535,4.854-1.604c0.3-0.126,0.604-0.188,0.901-0.188h0.189
			c0.299,0.085,0.471,0.213,0.513,0.381v0.193c0,0.257-0.153,0.511-0.453,0.765c-1.274,1.025-2.535,1.646-3.767,1.856
			c-1.238,0.215-2.198,0.32-2.881,0.32c-0.685,0-1.281-0.063-1.791-0.191l-0.382,0.443c-0.892,0.987-1.918,1.935-3.071,2.85
			c-1.147,0.919-2.15,1.567-3,1.95c-0.344,0.13-0.641,0.201-0.899,0.224c-0.253,0.023-0.425,0.034-0.511,0.034
			C266.725,86.487,266.552,86.463,266.424,86.418z M267.958,84.374c1.323-0.684,2.729-1.77,4.224-3.26l0.699-0.767l-0.38-0.192
			c-0.301-0.17-0.612-0.383-0.932-0.641c-0.317-0.256-0.537-0.447-0.667-0.574l-0.128-0.26l-0.644,0.834
			c-0.508,0.728-1.015,1.48-1.502,2.271c-0.487,0.788-0.841,1.406-1.055,1.854c-0.211,0.447-0.317,0.734-0.317,0.864
			c0,0.085,0.041,0.126,0.128,0.126c0.039,0,0.113-0.02,0.224-0.064C267.711,84.524,267.833,84.46,267.958,84.374z M275.311,75.355
			c0-0.38-0.075-0.626-0.223-0.733c-0.146-0.105-0.262-0.159-0.35-0.159c-0.171,0-0.386,0.087-0.639,0.257
			c-0.385,0.297-0.799,0.695-1.25,1.183c-0.447,0.492-0.758,0.905-0.922,1.247c0,0.086,0.096,0.224,0.287,0.415
			c0.188,0.19,0.414,0.396,0.666,0.607c0.255,0.215,0.469,0.363,0.646,0.448l0.505,0.255l0.32-0.513
			C274.995,77.38,275.311,76.381,275.311,75.355z"/>
		<path d="M277.616,84.058c0.302-0.387,0.737-0.962,1.312-1.731c0.572-0.766,1.119-1.428,1.63-1.979
			c0.255-0.3,0.649-0.769,1.187-1.407c0.53-0.641,1.071-1.299,1.627-1.985c0.809-1.062,1.406-1.839,1.791-2.333
			c0.387-0.487,0.66-0.853,0.829-1.088c0.173-0.23,0.346-0.477,0.513-0.732c0.381-0.556,0.66-0.841,0.832-0.866
			c0.172-0.02,0.272-0.027,0.319-0.027c0.255,0,0.447,0.127,0.576,0.38c0.042,0.088,0.065,0.194,0.065,0.32
			c0,0.214-0.065,0.471-0.194,0.769c-0.085,0.168-0.234,0.418-0.447,0.733c-0.212,0.322-0.425,0.632-0.64,0.928
			c-0.214,0.299-0.382,0.533-0.512,0.704l-0.127,0.127c0.172-0.041,0.318-0.062,0.446-0.062c0.423,0,0.785,0.127,1.087,0.384
			c0.469,0.295,0.812,0.723,1.026,1.277c0.421,1.066,1.046,1.599,1.852,1.599h0.194c0.851-0.086,1.791-0.426,2.812-1.024
			c0.422-0.257,0.786-0.381,1.09-0.381h0.189c0.254,0.04,0.381,0.213,0.381,0.51c0,0.303-0.153,0.599-0.447,0.896
			c-0.468,0.471-1.108,0.853-1.914,1.152c-0.898,0.342-1.712,0.511-2.432,0.511c-0.214,0-0.428-0.023-0.639-0.063
			c-0.939-0.171-1.727-0.747-2.368-1.727c-0.131-0.17-0.234-0.346-0.319-0.513c-0.172-0.385-0.332-0.588-0.479-0.607
			c-0.153-0.02-0.246-0.034-0.288-0.034c-0.259,0-0.618,0.154-1.087,0.45c-0.77,0.511-1.61,1.278-2.53,2.303
			c-0.915,1.022-1.673,1.917-2.266,2.683c-0.173,0.215-0.36,0.469-0.579,0.771c-0.168,0.211-0.34,0.438-0.508,0.671
			c-0.172,0.23-0.302,0.394-0.385,0.48c-0.474,0.509-0.871,0.766-1.219,0.766h-0.062c-0.336,0-0.531-0.115-0.572-0.353
			c-0.039-0.237-0.063-0.396-0.063-0.479C277.298,84.779,277.403,84.435,277.616,84.058z"/>
	</g>
	<path fill="#101010" d="M159.191,53.627c-3.545-0.404-7.301-2.398-10.718-5.484c-3.441-3.086-6.653-7.182-9.708-11.983
		c-1.527-2.404-3.016-4.993-4.472-7.751c-0.361-0.69-0.722-1.388-1.128-2.097c-0.199-0.354-0.398-0.709-0.599-1.067
		c-0.226-0.343-0.452-0.688-0.68-1.034c-0.9-1.395-1.991-2.699-3.163-3.968c-2.415-2.468-5.335-4.668-8.721-6.247
		c-3.36-1.631-7.13-2.683-11.092-3.219c-7.939-1.038-16.687,0.122-25.143,3.531c-2.107,0.869-4.204,1.859-6.256,3.013
		c-2.052,1.145-4.024,2.545-6.007,3.81c-4.017,2.509-8.52,4.576-13.428,5.552c-4.895,0.994-10.165,0.762-15.2-0.854
		c-1.263-0.394-2.507-0.867-3.766-1.376c-0.636-0.251-1.255-0.52-1.969-0.744c-0.168-0.053-0.469-0.13-0.787-0.15
		c-0.31-0.017-0.589,0.065-0.805,0.259c-0.211,0.202-0.31,0.477-0.315,0.78c-0.011,0.288,0.088,0.682,0.144,0.847
		c0.025,0.099,0.07,0.213,0.161,0.367c0.064,0.15,0.161,0.272,0.275,0.378c0.214,0.223,0.533,0.333,0.842,0.291
		c0.314-0.044,0.611-0.178,0.801-0.309c0.175-0.113,0.328-0.229,0.475-0.345c0.573-0.466,1.074-0.939,1.596-1.395
		c1.036-0.912,2.11-1.767,3.278-2.493c2.322-1.47,4.996-2.409,7.8-2.717c2.764-0.305,5.668,0.271,8.638,0.635
		c1.493,0.176,3.018,0.371,4.634,0.204c0.401-0.026,0.811-0.126,1.219-0.218c0.405-0.137,0.835-0.297,1.149-0.451
		c0.684-0.312,1.373-0.619,2.068-0.891c0.692-0.271,1.402-0.538,2.083-0.693c0.432-0.092,0.433-0.075,0.461-0.071
		c0.036,0.013,0.018,0.058,0.003,0.081c-0.29,0.482-0.853,1.096-1.371,1.596c-0.27,0.258-0.548,0.511-0.833,0.747
		c-0.142,0.117-0.287,0.233-0.426,0.333l-0.178,0.122c-0.01,0.006-0.014,0.009-0.023,0.008l-0.657-0.029l-0.698-0.115
		c-0.454-0.119-0.899-0.265-1.32-0.497c-0.85-0.442-1.633-1.109-2.479-1.785c-0.843-0.678-1.763-1.339-2.771-1.861
		c-1-0.539-2.096-0.893-3.18-1.177c-4.324-1.045-9.035-1.068-13.443,0.449c-1.085,0.407-2.166,0.86-3.173,1.458
		c-0.242,0.136-0.533,0.316-0.735,0.416c-0.069,0.015-0.136,0.072-0.194,0.08c-0.05-0.023-0.1,0.027-0.148-0.003
		c-0.174-0.036-0.495-0.324-0.649-0.786c-0.371-0.871-0.431-1.992-0.359-3.063c0.084-1.082,0.255-2.179,0.568-3.252
		c0.281-1.08,0.677-2.138,1.112-3.183c0.474-1.027,0.901-2.124,1.536-2.918c1.307-1.668,3.484-2.516,5.705-2.849
		c2.242-0.344,4.587-0.249,6.912,0.027c2.329,0.283,4.655,0.764,6.961,1.368c4.602,1.23,9.182,2.879,13.494,5.049
		c0.535,0.275,1.064,0.561,1.573,0.866c0.255,0.152,0.506,0.308,0.746,0.47l0.404,0.287c0.004,0.002,0.002,0.007-0.002,0.006
		c-0.345-0.018-0.681-0.017-1.356-0.084c-2.409-0.209-4.84-0.655-7.274-1.107c-4.87-0.919-9.779-1.973-14.805-2.612
		c-2.512-0.318-5.057-0.532-7.631-0.483c-2.562,0.072-5.199,0.314-7.678,1.35c-2.478,0.946-4.715,2.976-5.674,5.533l-0.358,0.951
		l-0.233,0.979c-0.173,0.667-0.25,1.267-0.371,1.898l-0.671,3.756c-0.889,5.017-1.617,10.138-1.5,15.318
		c0.037,2.586,0.337,5.181,0.911,7.717c0.571,2.534,1.41,5.029,2.628,7.336c0.577,1.194,1.166,2.227,1.654,3.389
		c0.468,1.145,0.909,2.308,1.178,3.502c0.278,1.187,0.469,2.401,0.405,3.576c-0.056,1.164-0.39,2.309-1.143,2.987
		c-0.344,0.375-0.838,0.554-1.341,0.692c-0.254,0.066-0.54,0.055-0.808,0.092c-0.288,0.015-0.621,0.004-0.905-0.005l-0.197-0.013
		l-0.052-0.006c-0.007,0.235-0.187,0.69-0.198,0.621c0.038-0.047,0.34,0.51,0.356,0.549l0.057-0.023l0.197-0.071
		c0.292-0.099,0.612-0.204,0.94-0.344l0.254-0.117c0.083-0.042,0.257-0.144,0.374-0.221c0.254-0.174,0.45-0.395,0.546-0.65
		c0.229-0.541-0.109-1.112-0.61-1.439c-0.285-0.212-0.384-0.234-0.564-0.334c-0.163-0.067-0.311-0.15-0.488-0.202
		c-0.35-0.104-0.677-0.252-1.063-0.277c-0.74-0.141-1.55,0.013-2.21,0.3c-1.349,0.596-2.244,1.509-3.253,2.178
		c-0.987,0.684-2.037,1.181-3.171,1.378c-1.138,0.197-2.308,0.155-3.391-0.198c-1.093-0.347-2.094-0.984-3.082-1.712
		c-1.006-0.692-1.94-1.638-3.492-1.998c-0.792-0.134-1.645,0.092-2.255,0.509c-0.595,0.439-1.106,0.843-1.529,1.512
		c-0.199,0.306-0.446,0.822-0.266,1.442c0.22,0.597,0.663,0.849,0.989,1.024c0.687,0.325,1.323,0.456,1.955,0.586
		c2.489,0.469,4.975,0.619,7.142,1.446c0.266,0.103,0.521,0.22,0.759,0.353c0.245,0.137,0.272,0.176,0.349,0.322
		c0.129,0.281,0.074,0.86-0.063,1.4c-0.274,1.113-0.746,2.265-1.09,3.481c-0.32,1.206-0.672,2.559-0.188,4
		c0.236,0.71,0.747,1.33,1.34,1.734c0.146,0.103,0.283,0.204,0.538,0.301c0.193,0.105,0.538,0.175,0.804,0.102
		c0.283-0.044,0.54-0.256,0.689-0.414c0.177-0.168,0.242-0.278,0.346-0.393c0.653-0.874,1.599-1.245,2.724-1.392
		c0.272-0.047,0.555-0.063,0.84-0.07c0.289-0.02,0.566-0.02,0.832,0c0.546,0.046,1.106,0.144,1.663,0.29
		c2.234,0.592,4.398,1.604,6.485,2.68c2.086,1.092,4.11,2.298,6.052,3.587c0.483,0.325,0.961,0.654,1.428,0.993l0.684,0.516
		l0.326,0.264l0.231,0.204c0.025,0.031,0.041,0.026-0.007,0.11c-0.098,0.227-0.252,0.467-0.389,0.703
		c-0.295,0.468-0.611,0.934-0.965,1.373c-2.775,3.58-6.711,6.119-10.887,7.555c-4.203,1.419-8.673,1.832-12.983,1.445
		c-4.299-0.39-8.486-1.6-12.021-3.789c-1.755-1.088-3.386-2.404-4.593-3.979c-0.3-0.391-0.568-0.805-0.757-1.218
		c-0.093-0.177-0.175-0.475-0.181-0.518c-0.007-0.05-0.001-0.116,0.053-0.138c0.027-0.007,0.054-0.009,0.062-0.009l0.357-0.017
		l0.787-0.036c0.523-0.04,1.048-0.015,1.566-0.108c2.101-0.211,4.072-0.835,5.996-1.28l1.44-0.328l1.447-0.24
		c0.958-0.182,1.927-0.269,2.892-0.347c3.862-0.309,7.669-0.381,11.333,0.017c3.678,0.356,7.211,1.049,10.679,1.673
		c0.872,0.148,1.735,0.299,2.63,0.375c0.448,0.036,0.899,0.063,1.409-0.014c0.258-0.068,0.553-0.099,0.85-0.417
		c0.071-0.079,0.141-0.214,0.184-0.331c0.044-0.126,0.026-0.126,0.042-0.195c0.027-0.24-0.021-0.471-0.15-0.637
		c-0.266-0.367-0.562-0.417-0.808-0.505c-0.246-0.058-0.482-0.092-0.708-0.108c-0.453-0.03-0.89-0.028-1.318-0.005
		c-0.857,0.042-1.691,0.135-2.514,0.237c-3.284,0.429-6.404,1.002-9.421,1.424c-1.506,0.211-2.985,0.398-4.431,0.501
		c-1.441,0.115-2.856,0.079-4.255,0.033c-2.79-0.102-5.454-0.31-7.977-0.538c-2.522-0.233-4.908-0.499-7.136-0.813
		c-0.554-0.087-1.1-0.173-1.637-0.257c-0.265-0.051-0.527-0.101-0.787-0.151c-0.184-0.039-0.294-0.063-0.441-0.112
		c-0.054-0.022-0.174-0.05-0.134-0.125c0.033-0.062,0.077-0.118,0.122-0.173c0.109-0.131,0.135-0.162,0.342-0.383
		c0.346-0.363,0.697-0.713,1.052-1.046c4.162-3.865,8.01-6.203,10.932-6.802c1.458-0.307,2.645-0.094,3.387,0.231
		c0.742,0.34,1.09,0.664,1.207,0.661c0.097,0.024-0.055-0.25-0.608-0.708c-0.544-0.454-1.657-0.979-3.186-0.944
		c-3.075,0.086-7.17,2.201-11.613,6.093c-0.405,0.358-0.81,0.73-1.213,1.122l-0.603,0.603l-0.355,0.381
		c-0.172,0.206-0.365,0.423-0.501,0.632C0.093,85.368,0.01,85.573,0,85.751c0.148,0.163,0.176,0.343,0.306,0.491
		c0.028,0.09,0.168,0.132,0.28,0.186c0.116,0.052,0.225,0.11,0.371,0.14c0.25,0.067,0.621,0.165,0.71,0.177
		c0.593,0.124,1.183,0.223,1.783,0.318c2.396,0.367,4.919,0.655,7.578,0.915c2.66,0.252,5.448,0.478,8.377,0.59
		c1.454,0.055,2.984,0.082,4.526-0.045c1.533-0.122,3.078-0.315,4.641-0.538c3.125-0.437,6.34-1.031,9.642-1.42
		c0.822-0.09,1.655-0.166,2.458-0.167c0.389,0.006,0.806,0.031,1.074,0.116c0.059,0.02,0.126,0.042,0.123,0.051
		c0.01-0.005-0.003,0.018,0.027-0.012c0.065-0.058,0.033-0.049,0.061-0.076c0.006-0.028,0.133-0.085,0.089-0.062
		c-0.016,0.006-0.031,0.008-0.043,0.008c-0.075-0.046,0.118,0.099-0.17-0.11c-0.038,0.048,0.071,0.121,0.112,0.183
		c0.038,0.046,0-0.045,0.032-0.048c0.034-0.009-0.09-0.077-0.099-0.124c-0.022,0.021-0.482,0.11-0.853,0.08
		c-0.396-0.01-0.818-0.057-1.241-0.114c-0.85-0.115-1.718-0.271-2.593-0.43c-3.504-0.653-7.152-1.332-10.946-1.647
		c-1.892-0.158-3.835-0.247-5.777-0.169c-0.972,0.026-1.95,0.052-2.934,0.078c-0.984,0.065-1.975,0.168-2.97,0.252
		c-0.997,0.077-1.989,0.295-2.992,0.438c-0.988,0.202-1.995,0.424-2.969,0.675c-0.982,0.265-1.951,0.485-2.922,0.702
		c-0.981,0.135-1.953,0.349-2.962,0.351l-0.753,0.034l-0.377,0.018c-0.156,0.009-0.172,0.002-0.491,0.03
		c-0.494,0.03-0.928,0.301-1.033,0.776c-0.076,0.214-0.055,0.473-0.037,0.701c0.045,0.241,0.077,0.356,0.137,0.51
		c0.442,1.141,1.14,1.98,1.877,2.793c1.494,1.601,3.284,2.879,5.199,3.935c3.851,2.102,8.262,3.179,12.734,3.411
		c4.458,0.158,9.107-0.283,13.417-2.052c2.167-0.83,4.215-2.01,6.085-3.436c1.862-1.438,3.57-3.115,4.912-5.126
		c0.176-0.243,0.325-0.516,0.483-0.779c0.08-0.127,0.152-0.275,0.222-0.424c0.072-0.159,0.197-0.454,0.216-0.693
		c0.039-0.49-0.555-0.968-0.708-1.099c-0.237-0.201-0.474-0.386-0.713-0.568c-0.956-0.718-1.937-1.375-2.935-2.016
		c-1.998-1.275-4.062-2.462-6.213-3.529c-2.161-1.042-4.374-2.053-6.881-2.479c-0.632-0.107-1.305-0.097-1.923-0.061
		c-0.633,0.039-1.278,0.142-1.917,0.34c-0.638,0.2-1.272,0.553-1.779,1.036c-0.249,0.235-0.473,0.514-0.643,0.72
		c-0.177,0.206-0.151,0.164-0.207,0.168c-0.033-0.015-0.083-0.027-0.178-0.094c-0.098-0.075-0.213-0.131-0.299-0.218
		c-0.188-0.159-0.361-0.328-0.481-0.531c-0.265-0.39-0.379-0.88-0.391-1.408c-0.023-1.065,0.332-2.21,0.704-3.345
		c0.354-1.16,0.876-2.262,0.95-3.715c0.001-0.366-0.059-0.799-0.304-1.197c-0.24-0.41-0.685-0.657-0.94-0.783
		c-0.597-0.308-1.211-0.521-1.825-0.698c-2.44-0.701-4.983-0.791-7.238-1.377c-0.538-0.121-1.073-0.47-1.012-0.543
		c-0.018-0.037,0.037-0.225,0.169-0.422c0.146-0.196,0.325-0.414,0.531-0.592c0.408-0.355,0.839-0.708,1.288-0.767
		c0.442-0.081,0.909-0.019,1.4,0.26c0.98,0.5,1.932,1.367,3.001,2.068c1.062,0.719,2.285,1.337,3.621,1.574
		c1.334,0.231,2.691,0.148,3.983-0.242c1.292-0.389,2.449-1.121,3.449-1.891c1.007-0.762,1.959-1.544,2.975-1.73
		c0.506-0.057,1.025-0.016,1.545,0.189c0.25,0.065,0.551,0.229,0.731,0.322c0.054,0.034,0.093,0.06,0.085,0.112
		c-0.007,0.023-0.026,0.039-0.045,0.053c-0.026,0.017-0.003,0.006-0.161,0.081c-0.246,0.112-0.529,0.209-0.824,0.309
		c-0.157,0.056-0.287,0.091-0.509,0.189c-0.079,0.113-0.074-0.142-0.413,0.448c0.063,0.946,0.604,0.745,0.525,0.795
		c0.148,0.029,0.235,0.035,0.325,0.041c0.353,0.022,0.664,0.022,0.986,0.023c0.341-0.018,0.7-0.055,1.048-0.087
		c0.346-0.1,0.704-0.176,1.037-0.327c0.316-0.189,0.673-0.323,0.929-0.599l0.41-0.376l0.321-0.444
		c0.819-1.224,0.988-2.649,0.961-3.964c-0.04-1.329-0.281-2.622-0.625-3.874c-0.374-1.241-0.802-2.466-1.356-3.629
		c-0.534-1.179-1.17-2.303-1.688-3.407c-2.193-4.458-3.05-9.476-3.124-14.456c-0.025-5.004,0.684-9.996,1.58-14.952l0.667-3.727
		c0.203-1.277,0.479-2.387,0.942-3.499c0.524-1.056,1.184-2.046,2.078-2.816c0.903-0.75,1.924-1.378,3.057-1.788
		c2.252-0.854,4.738-1.093,7.191-1.136c2.465-0.03,4.94,0.2,7.396,0.512c4.918,0.637,9.771,1.678,14.637,2.594
		c2.435,0.452,4.873,0.895,7.365,1.106l0.467,0.041l0.58,0.019l0.592,0.016c0.203-0.001,0.374,0.035,0.637-0.033
		c0.48-0.088,0.834-0.294,0.91-0.763c0.038-0.395-0.209-0.781-0.601-1.166l-0.313-0.26l-0.152-0.126L77.887,8.45
		c-0.132-0.096-0.264-0.19-0.397-0.276c-0.266-0.179-0.534-0.344-0.804-0.503c-0.54-0.319-1.086-0.616-1.637-0.896
		C70.63,4.56,66.027,2.909,61.349,1.657c-2.343-0.614-4.712-1.104-7.108-1.396C51.847-0.022,49.415-0.134,47,0.23
		c-1.202,0.19-2.408,0.479-3.537,1.012c-1.132,0.514-2.186,1.271-2.982,2.264c-0.392,0.487-0.741,1.055-0.984,1.591
		c-0.248,0.538-0.519,1.062-0.744,1.609c-0.455,1.091-0.872,2.198-1.175,3.343c-0.337,1.134-0.521,2.314-0.625,3.502
		c-0.075,1.19-0.043,2.417,0.418,3.636c0.241,0.58,0.617,1.287,1.479,1.582c0.417,0.146,0.913,0.052,1.249-0.129
		c0.212-0.093,0.298-0.154,0.422-0.224l0.355-0.205c0.936-0.567,1.946-0.988,2.958-1.378c4.112-1.441,8.617-1.447,12.736-0.46
		c2.068,0.469,3.873,1.448,5.497,2.79c0.824,0.653,1.665,1.386,2.692,1.927c0.506,0.278,1.066,0.469,1.63,0.612
		c0.284,0.059,0.571,0.095,0.856,0.141l0.91,0.04c0.173-0.025,0.342-0.082,0.498-0.163c0.141-0.086,0.211-0.133,0.302-0.2
		c0.175-0.125,0.331-0.25,0.487-0.378c0.31-0.256,0.603-0.521,0.89-0.794c0.572-0.569,1.102-1.089,1.596-1.871
		c0.059-0.078,0.139-0.277,0.209-0.424c0.076-0.157,0.09-0.319,0.127-0.476c0.016-0.302-0.076-0.629-0.322-0.822
		c-0.429-0.436-1.363-0.264-1.678-0.2c-0.812,0.173-1.53,0.442-2.25,0.716c-0.711,0.282-1.41,0.579-2.094,0.894l-0.514,0.234
		c-0.165,0.069-0.307,0.113-0.46,0.172c-0.302,0.11-0.638,0.169-0.973,0.221c-1.365,0.168-2.817,0.041-4.253-0.133
		c-2.88-0.338-5.772-0.93-8.769-0.717c-2.945,0.243-5.797,1.162-8.277,2.629c-1.246,0.723-2.39,1.587-3.46,2.497l-1.553,1.371
		c-0.252,0.223-0.504,0.435-0.745,0.61c-0.302,0.205-0.239,0.151-0.301,0.154c-0.019-0.01-0.029-0.03-0.038-0.048
		c-0.009-0.023-0.083-0.265-0.069-0.225c-0.012-0.036-0.007-0.098,0.044-0.096c0.032,0.002,0.015-0.003,0.087,0.015
		c0.053,0.012,0.252,0.071,0.387,0.12c0.3,0.103,0.607,0.222,0.917,0.344c1.239,0.498,2.5,1.009,3.779,1.435
		c5.109,1.76,10.551,2.193,15.614,1.309c5.078-0.856,9.736-2.861,13.872-5.333c1.042-0.612,2.039-1.277,3.023-1.942
		c0.972-0.637,1.925-1.287,2.919-1.856c1.969-1.169,3.981-2.207,6.031-3.074c8.178-3.516,16.722-4.829,24.512-4.037
		c3.898,0.385,7.596,1.356,10.938,2.804c3.325,1.485,6.294,3.451,8.691,5.837c1.227,1.164,2.265,2.466,3.231,3.773
		c0.931,1.348,1.712,2.707,2.457,4.136c1.497,2.852,3.034,5.541,4.624,8.053c3.185,5.013,6.558,9.373,10.331,12.677
		c1.883,1.647,3.869,3.022,5.939,4.002c2.064,0.983,4.22,1.55,6.29,1.63c3.084,0.078,5.698-0.788,7.642-1.852
		c1.98-1.041,3.353-2.251,4.417-3.187c0.503-0.5,0.938-0.933,1.307-1.299c0.334-0.395,0.608-0.719,0.821-0.971
		c0.415-0.513,0.567-0.757,0.468-0.74c-0.226,0.007-1.327,1.208-3.686,3.049c-1.169,0.928-2.725,1.94-4.704,2.804
		c-0.984,0.448-2.11,0.762-3.324,1.004C161.913,53.706,160.584,53.829,159.191,53.627z"/>
	<path fill="#101010" d="M176.178,51.228c-0.772,4.392-2.267,10.79-5.937,17.862c-3.658,6.988-9.732,14.751-19.284,19.153
		c-2.332,1.142-4.785,2.179-7.374,2.925c-2.589,0.725-5.308,1.182-8.061,1.157c-2.751-0.003-5.522-0.593-8.047-1.781
		c-2.545-1.161-4.746-3.057-6.479-5.34c-3.463-4.637-4.84-10.766-4.817-16.811c0.048-6.097,1.34-12.231,3.605-17.99
		c2.256-5.779,5.287-11.267,8.738-16.373c3.468-5.098,7.388-9.824,11.688-13.957c4.308-4.097,9.026-7.685,14.157-9.828
		c2.557-1.053,5.228-1.701,7.825-1.647c2.596,0.037,5.071,0.87,7.062,2.347c2.013,1.453,3.564,3.438,4.764,5.539
		c1.204,2.102,2.122,4.332,2.765,6.542c1.405,4.399,1.667,8.788,1.209,12.667c-0.451,3.9-1.862,7.255-3.619,9.813
		c-0.478,0.612-0.874,1.26-1.371,1.787c-0.498,0.527-0.977,1.034-1.435,1.519c-1.031,0.851-1.94,1.681-2.903,2.233
		c-0.468,0.292-0.882,0.614-1.312,0.844c-0.432,0.23-0.834,0.446-1.208,0.646c-0.373,0.209-0.716,0.401-1.03,0.578
		c-0.327,0.152-0.624,0.29-0.89,0.413c-1.059,0.518-1.613,0.899-1.626,1.09c-0.013,0.191,0.52,0.192,1.63-0.053
		c0.548-0.141,1.271-0.256,2.068-0.635c0.795-0.371,1.794-0.696,2.785-1.386c2.208-1.267,4.616-3.29,6.619-6.155
		c0.53-0.694,0.921-1.512,1.406-2.299c0.435-0.814,0.775-1.704,1.179-2.589c0.277-0.93,0.641-1.865,0.863-2.858
		c0.195-0.998,0.472-2.009,0.546-3.07c0.517-4.215,0.116-8.89-1.387-13.534c-0.706-2.333-1.692-4.658-3.015-6.912
		c-1.329-2.236-3.094-4.395-5.439-5.977c-2.336-1.587-5.253-2.436-8.167-2.392c-2.924,0.015-5.792,0.82-8.484,1.964
		c-5.395,2.349-10.188,6.055-14.562,10.24c-4.369,4.212-8.306,9.006-11.81,14.156c-3.48,5.166-6.537,10.708-8.835,16.592
		c-2.308,5.879-3.666,12.183-3.728,18.482c-0.067,6.268,1.332,12.721,4.981,17.854c1.856,2.511,4.252,4.639,7.013,6.008
		c2.761,1.366,5.784,2.032,8.739,2.122c5.96,0.171,11.46-1.76,16.285-4.059c1.182-0.636,2.389-1.204,3.501-1.896
		c0.564-0.333,1.125-0.665,1.681-0.994c0.542-0.368,1.08-0.734,1.614-1.098c0.545-0.35,1.048-0.748,1.54-1.153
		c0.493-0.403,0.997-0.787,1.471-1.198c0.899-0.871,1.86-1.659,2.658-2.576c3.343-3.531,5.881-7.347,7.817-11.038
		c3.859-7.425,5.406-14.25,6.155-19.138c0.137-1.157,0.235-2.164,0.299-3.02c0.049-0.857,0.017-1.566-0.006-2.123
		c-0.06-1.115-0.2-1.628-0.381-1.57c-0.181,0.058-0.401,0.685-0.62,1.849C176.823,47.32,176.543,49.015,176.178,51.228z"/>
	<path fill="#101010" d="M385.655,51.228c-0.772,4.392-2.267,10.79-5.937,17.862c-3.658,6.988-9.732,14.751-19.284,19.153
		c-2.332,1.142-4.785,2.179-7.374,2.925c-2.589,0.725-5.308,1.182-8.061,1.157c-2.751-0.003-5.522-0.593-8.047-1.781
		c-2.545-1.161-4.746-3.057-6.479-5.34c-3.464-4.637-4.84-10.766-4.817-16.811c0.048-6.097,1.34-12.231,3.605-17.99
		c2.256-5.779,5.287-11.267,8.738-16.373c3.468-5.098,7.388-9.824,11.689-13.957c4.307-4.097,9.026-7.685,14.157-9.829
		c2.557-1.053,5.228-1.701,7.826-1.647c2.596,0.037,5.071,0.87,7.062,2.347c2.013,1.453,3.564,3.438,4.764,5.539
		c1.204,2.102,2.122,4.332,2.765,6.542c1.405,4.399,1.667,8.788,1.209,12.667c-0.451,3.9-1.862,7.255-3.619,9.813
		c-0.478,0.612-0.874,1.26-1.371,1.787c-0.498,0.527-0.977,1.034-1.435,1.519c-1.031,0.851-1.94,1.681-2.903,2.233
		c-0.468,0.292-0.882,0.614-1.312,0.844c-0.432,0.23-0.834,0.446-1.208,0.646c-0.373,0.209-0.716,0.401-1.03,0.578
		c-0.327,0.152-0.624,0.29-0.89,0.413c-1.059,0.518-1.613,0.899-1.626,1.09c-0.013,0.191,0.52,0.192,1.63-0.053
		c0.548-0.141,1.271-0.256,2.068-0.635c0.795-0.371,1.794-0.696,2.785-1.386c2.208-1.267,4.616-3.29,6.619-6.155
		c0.53-0.694,0.921-1.512,1.406-2.299c0.435-0.814,0.775-1.704,1.179-2.589c0.277-0.93,0.641-1.865,0.863-2.858
		c0.195-0.998,0.472-2.009,0.546-3.07c0.517-4.215,0.116-8.89-1.387-13.534c-0.706-2.333-1.692-4.658-3.015-6.912
		c-1.328-2.236-3.093-4.395-5.439-5.977c-2.336-1.587-5.253-2.436-8.167-2.392c-2.925,0.015-5.792,0.82-8.485,1.964
		c-5.395,2.349-10.188,6.055-14.562,10.24c-4.37,4.213-8.306,9.006-11.811,14.156c-3.479,5.166-6.537,10.708-8.835,16.592
		c-2.308,5.879-3.666,12.183-3.728,18.482c-0.067,6.268,1.332,12.721,4.981,17.854c1.856,2.511,4.252,4.639,7.013,6.008
		c2.761,1.366,5.784,2.032,8.739,2.122c5.96,0.171,11.46-1.76,16.285-4.059c1.182-0.636,2.389-1.204,3.501-1.896
		c0.564-0.333,1.125-0.665,1.681-0.994c0.542-0.368,1.08-0.734,1.614-1.098c0.545-0.35,1.048-0.748,1.54-1.153
		c0.493-0.403,0.997-0.787,1.471-1.198c0.899-0.871,1.86-1.659,2.658-2.576c3.343-3.531,5.881-7.347,7.817-11.038
		c3.859-7.425,5.406-14.25,6.155-19.138c0.137-1.157,0.235-2.164,0.299-3.02c0.049-0.857,0.017-1.566-0.006-2.123
		c-0.06-1.115-0.2-1.628-0.381-1.57c-0.181,0.058-0.401,0.685-0.62,1.849C386.3,47.32,386.021,49.015,385.655,51.228z"/>
</g>
</svg>
