<?xml version="1.0" encoding="utf-8"?>
<!-- Generator: Adobe Illustrator 16.0.0, SVG Export Plug-In . SVG Version: 6.00 Build 0)  -->
<!DOCTYPE svg PUBLIC "-//W3C//DTD SVG 1.1//EN" "http://www.w3.org/Graphics/SVG/1.1/DTD/svg11.dtd">
<svg version="1.1" id="Laag_1" xmlns="http://www.w3.org/2000/svg" xmlns:xlink="http://www.w3.org/1999/xlink" x="0px" y="0px"
	 width="303.667px" height="274.667px" viewBox="0 0 303.667 274.667" enable-background="new 0 0 303.667 274.667"
	 xml:space="preserve">
<g>
	<path fill="#D6E3E1" d="M263.765,46.791c21.613,16.02,37.08,38.247,38.72,69.652c0.778,15.303-4.138,30.339-9.875,44.598
		c-13.11,32.634-32.574,80.367-64.531,98.476c-14.217,8.031-30.893,10.162-47.118,11.677
		c-53.632,4.978-112.263,3.298-145.655-45.069c-16.86-24.419-24.748-53.939-29.848-83.234c-6.72-38.801-9.465-86.943,20.834-117.323
		c35.441-35.523,103.598-23.6,147.213-14.422C203.7,17.495,238.096,27.738,263.765,46.791z"/>
	<g>
		<path d="M157.053,20.588c-45.151,0-81.903,36.711-81.903,81.903c0,43.512,62.195,128.815,64.817,132.421
			c4.384,5.982,10.612,9.383,17.085,9.383c6.474,0,12.743-3.401,17.085-9.383c2.663-3.605,64.859-88.909,64.859-132.421
			C238.998,57.3,202.246,20.588,157.053,20.588z M165.453,228.562c-4.711,6.392-12.087,6.392-16.798,0
			c-0.615-0.86-62.729-86.041-62.729-126.07c0-39.21,31.917-71.168,71.127-71.168c39.251,0,71.169,31.958,71.169,71.168
			C228.222,142.521,166.067,227.702,165.453,228.562z"/>
		<path d="M157.053,54.841C134.437,54.841,116,73.238,116,95.854c0,22.658,18.438,41.095,41.054,41.095
			c22.658,0,41.054-18.437,41.054-41.095C198.107,73.238,179.711,54.841,157.053,54.841z M157.053,126.132
			c-16.675,0-30.278-13.561-30.278-30.278c0-16.675,13.603-30.237,30.278-30.237c16.717,0,30.319,13.562,30.319,30.237
			C187.373,112.571,173.77,126.132,157.053,126.132z"/>
	</g>
</g>
</svg>
