<?xml version="1.0" encoding="utf-8"?>
<!-- Generator: Adobe Illustrator 16.0.0, SVG Export Plug-In . SVG Version: 6.00 Build 0)  -->
<!DOCTYPE svg PUBLIC "-//W3C//DTD SVG 1.1//EN" "http://www.w3.org/Graphics/SVG/1.1/DTD/svg11.dtd">
<svg version="1.1" id="Laag_1" xmlns="http://www.w3.org/2000/svg" xmlns:xlink="http://www.w3.org/1999/xlink" x="0px" y="0px"
	 width="303.667px" height="274.667px" viewBox="0 0 303.667 274.667" enable-background="new 0 0 303.667 274.667"
	 xml:space="preserve">
<g>
	<path fill="#F5C400" d="M39.402,46.385C17.693,62.478,2.157,84.804,0.51,116.35c-0.78,15.371,4.158,30.474,9.919,44.797
		c13.169,32.779,32.719,80.725,64.818,98.916c14.281,8.066,31.031,10.206,47.33,11.729c53.871,5,112.763,3.313,146.305-45.271
		c16.936-24.527,24.857-54.18,29.98-83.606c6.75-38.974,9.507-87.33-20.927-117.847c-35.599-35.681-104.06-23.705-147.869-14.487
		C99.735,16.96,65.186,27.249,39.402,46.385z"/>
	<path d="M245.712,53.094H68.499c-14.466,0-26.236,11.77-26.236,26.256v102.043c0,14.487,11.771,26.257,26.236,26.257h177.213
		c14.466,0,26.235-11.77,26.235-26.257V79.351C271.948,64.864,260.178,53.094,245.712,53.094z M193.343,130.403l65.148-59.715
		c1.688,2.49,2.654,5.453,2.654,8.663v102.043c0,3.231-0.987,6.215-2.675,8.685L193.343,130.403z M245.712,63.897
		c1.275,0,2.51,0.206,3.683,0.494l-85.314,78.215c-3.787,3.478-10.207,3.457-13.951,0L64.795,64.391
		c1.193-0.288,2.429-0.494,3.704-0.494H245.712z M55.741,190.079c-1.687-2.47-2.695-5.453-2.695-8.685V79.351
		c0-3.209,0.987-6.172,2.654-8.663l65.148,59.715L55.741,190.079z M68.499,196.869c-1.255,0-2.49-0.206-3.663-0.494l63.997-58.646
		l13.992,12.84c3.93,3.601,9.096,5.391,14.282,5.391c5.144,0,10.309-1.79,14.26-5.391l14.013-12.84l63.996,58.646
		c-1.194,0.288-2.407,0.494-3.662,0.494H68.499z"/>
</g>
</svg>
