<?xml version="1.0" encoding="utf-8"?>
<!-- Generator: Adobe Illustrator 16.0.0, SVG Export Plug-In . SVG Version: 6.00 Build 0)  -->
<!DOCTYPE svg PUBLIC "-//W3C//DTD SVG 1.1//EN" "http://www.w3.org/Graphics/SVG/1.1/DTD/svg11.dtd">
<svg version="1.1" id="Laag_1" xmlns="http://www.w3.org/2000/svg" xmlns:xlink="http://www.w3.org/1999/xlink" x="0px" y="0px"
	 width="234.333px" height="278.667px" viewBox="0 0 234.333 278.667" enable-background="new 0 0 234.333 278.667"
	 xml:space="preserve">
<g>
	<path fill="#BCC7AD" d="M139.917,274.414c63.727-20.005,94.333-130.518,94.035-189.806c-0.112-26.929-10.861-55.331-33.593-69.719
		c-53.222-33.646-130.89,0.654-166.646,44.247C-4.731,105.976-11.708,171.552,22.18,222.908
		C42.149,253.102,97.423,287.737,139.917,274.414z"/>
	<path d="M215.662,196.185l-31.872-29.84c-5.655-5.262-14.986-5.43-20.754-0.374l-5.914,5.132c-2.65,2.294-6.103,4.665-7.111,4.927
		c-2.928,0.373-5.469-1.158-9.387-3.751l-1.063-0.691c-26.517-17.336-39.075-41.521-39.208-41.764
		c-1.323-2.594-0.914-7.24,0.841-9.592l7.315-9.759c4.704-6.252,3.958-15.358-1.697-20.733L80.964,65.238
		c-3.491-3.77-10.191-10.115-15.919-10.301c-8.845-0.486-13.51,6.493-16.739,11.458l-0.932,1.455
		c-9.761,14.519-12.69,31.613-8.771,50.778c7.315,35.643,38.892,75.354,82.39,103.626c19.948,12.97,38.161,19.501,54.304,19.483
		c5.002,0,9.798-0.616,14.407-1.866c20.864-5.673,29.355-22.282,29.709-22.971C222.715,210.311,221.055,201.205,215.662,196.185z
		 M209.654,212.01c-0.262,0.522-6.889,13.101-23.03,17.393c-16.31,4.348-36.369-1.138-59.678-16.292
		c-41.167-26.723-70.913-63.784-77.652-96.665c-3.339-16.199-0.933-30.512,7.129-42.548l1.008-1.549
		c2.949-4.517,4.536-6.531,6.904-6.531c0.039,0,0.094,0,0.094,0c1.475,0.317,5.542,3.583,8.79,7.09l26.089,24.764
		c1.603,1.53,1.865,4.442,0.503,6.252l-7.315,9.759l-0.019,0.019c-4.256,5.692-5.039,14.761-1.846,21.05
		c0.558,1.102,13.9,26.984,42.975,45.982l1.008,0.671c4.366,2.855,9.835,6.457,16.907,5.43c4.405-0.634,10.377-5.448,12.727-7.501
		l5.953-5.131c1.624-1.419,4.555-1.363,6.16,0.112l31.872,29.838C210.101,205.907,210.809,209.734,209.654,212.01z"/>
</g>
</svg>
